M48
;FILE_FORMAT=2:4
INCH
;TYPE=PLATED
T01C0.013
T02C0.035
T03C0.038
;TYPE=NON_PLATED
T04C0.184
%
T01
X+236500Y+283750
X+238250Y+280250
X+237500Y+281375
X+237250Y+280750
X+237875Y+284625
X+239000Y+282875
X+237750Y+282500
X+242750Y+272125
X+242500Y+271250
X+242125Y+270875
X+241750Y+270500
X+241125Y+274125
X+245000Y+266625
X+244000Y+265500
X+243375Y+271875
X+244750Y+272000
X+245250Y+271000
X+244125Y+272500
X+244000Y+271875
X+243250Y+284125
X+244625Y+283500
Y+282750
X+247500Y+264750
X+248500
X+248375Y+271000
X+248000Y+272000
X+247750Y+282500
X+249500Y+264750
X+250500
X+251500
X+249500Y+269500
X+250250Y+271500
X+249875Y+270500
X+250750Y+275000
X+251250Y+274000
X+249625Y+277500
X+250000Y+277000
X+249250Y+281000
X+250375Y+281500
X+250875Y+280000
X+252500Y+264750
X+253000Y+265500
X+253500Y+264750
X+254500
Y+268375
X+253500Y+272500
X+254000Y+280500
X+254750Y+279500
X+253250Y+284750
X+255500Y+264750
X+256500
X+257500
X+255375Y+275000
X+257125Y+274125
X+255500Y+278000
X+257125Y+277125
X+260500Y+264750
X+258500
Y+269375
X+259000Y+271375
X+260000Y+271000
X+258875Y+275625
X+259625Y+277750
X+260625Y+276875
X+263250Y+267625
X+262000Y+268125
X+262375Y+273625
X+261375Y+278625
X+263500Y+278375
X+264500Y+264750
X+265375Y+273625
X+265500Y+276625
X+238375Y+284875
X+244375Y+273000
X+245750Y+270000
X+248000Y+273000
X+248750Y+270000
X+250375Y+276000
X+249750Y+282125
X+251375Y+279000
X+254125Y+270000
X+254375Y+279000
X+256000Y+276000
X+237000Y+274250
X+237125Y+280250
X+240000
X+237125Y+282500
X+246000Y+266625
X+243000Y+265500
X+249125Y+269000
X+252125Y+267500
X+242875Y+271625
X+260875Y+272000
Y+274375
X+254875Y+278500
X+255125Y+277000
X+263875Y+277625
X+267000Y+280750
Y+280125
T02
X+267500Y+273750
Y+274750
X+262750Y+282250
Y+281250
X+267500Y+271750
Y+272750
Y+275750
Y+276750
Y+269250
Y+270250
Y+277750
Y+278750
X+247000Y+283000
Y+282000
X+253000
Y+283000
X+247000Y+280000
Y+279000
X+253000
Y+280000
X+247000Y+277000
Y+276000
X+253000
Y+277000
X+247000Y+274000
Y+273000
X+253000
Y+274000
X+247000Y+271000
Y+270000
X+253000
Y+271000
X+247000Y+284000
Y+281000
Y+278000
X+253000
Y+281000
Y+284000
X+247000Y+275000
Y+272000
Y+269000
X+253000
Y+272000
Y+275000
T03
X+269500Y+284500
Y+283500
X+268500
Y+284500
X+267500Y+283500
Y+284500
X+266500Y+283500
Y+284500
X+265500
Y+283500
T04
X+243000Y+269221
X+265000Y+267174
T00
M30
